<?xml version="1.0" standalone="no"?>
<!DOCTYPE svg PUBLIC "-//W3C//DTD SVG 20010904//EN"
 "http://www.w3.org/TR/2001/REC-SVG-20010904/DTD/svg10.dtd">
<svg version="1.0" xmlns="http://www.w3.org/2000/svg"
 width="469.000000pt" height="469.000000pt" viewBox="0 0 469.000000 469.000000"
 preserveAspectRatio="xMidYMid meet">
<metadata>
Created by potrace 1.14, written by Peter Selinger 2001-2017
</metadata>
<g transform="translate(0.000000,469.000000) scale(0.100000,-0.100000)"
fill="#000000" stroke="none">
<path d="M3725 4539 c-44 -10 -91 -20 -105 -23 -14 -3 -38 -8 -55 -11 -115
-23 -386 -75 -414 -80 -19 -3 -37 -7 -40 -9 -3 -2 -22 -7 -41 -10 -19 -3 -105
-19 -190 -36 -85 -17 -166 -33 -180 -35 -14 -3 -47 -9 -75 -15 -73 -15 -130
-26 -170 -34 -11 -2 -90 -18 -175 -34 -85 -17 -166 -33 -180 -36 -14 -3 -50
-10 -80 -16 -30 -6 -66 -13 -80 -16 -14 -2 -36 -7 -50 -10 -14 -3 -36 -8 -50
-10 -14 -2 -36 -7 -50 -10 -14 -3 -36 -8 -50 -10 -14 -2 -36 -6 -50 -9 -14 -3
-36 -8 -50 -11 -14 -3 -194 -38 -400 -79 -206 -41 -391 -77 -410 -80 -19 -3
-42 -8 -50 -10 -8 -2 -28 -7 -45 -9 -16 -3 -86 -17 -155 -31 -69 -14 -136 -28
-150 -30 -159 -29 -289 -58 -317 -72 -64 -30 -118 -126 -107 -191 3 -15 25
-130 50 -257 25 -126 49 -252 55 -280 5 -27 14 -72 19 -100 6 -27 12 -61 15
-75 2 -14 14 -72 26 -130 11 -58 23 -115 25 -127 5 -31 9 -47 39 -198 14 -71
28 -141 30 -155 6 -30 13 -68 19 -95 9 -41 68 -341 73 -365 2 -14 10 -56 18
-95 8 -38 16 -81 19 -95 2 -14 14 -71 25 -128 11 -56 23 -117 26 -135 3 -17 8
-39 10 -47 2 -8 7 -28 9 -45 3 -16 24 -120 46 -230 22 -110 43 -212 45 -227 4
-21 28 -144 60 -298 1 -8 6 -35 11 -60 4 -25 8 -47 9 -50 0 -3 7 -36 14 -75
34 -178 119 -236 296 -200 44 9 91 18 105 21 14 2 59 11 100 19 41 9 86 17
100 20 14 3 60 12 103 21 42 8 90 17 105 20 15 3 34 7 42 9 8 2 31 7 50 10 19
3 78 14 130 25 52 10 106 21 120 24 38 7 729 144 870 172 69 14 136 27 150 29
14 2 115 22 225 44 110 23 211 43 225 46 14 3 93 18 175 34 83 17 161 32 175
35 14 2 95 18 180 35 85 17 166 33 180 36 14 3 59 12 100 20 41 8 86 17 100
20 14 3 36 7 50 10 14 2 41 7 60 10 19 3 42 8 50 10 8 2 29 7 45 10 184 32
214 45 263 106 10 14 5 52 -28 220 -22 112 -43 218 -46 234 -2 17 -7 37 -9 45
-4 15 -129 645 -140 708 -3 18 -12 64 -20 102 -8 38 -17 82 -20 97 -2 16 -16
84 -30 153 -14 69 -28 136 -30 150 -3 14 -27 140 -56 280 -28 140 -52 266 -55
280 -2 14 -7 36 -9 50 -3 14 -7 36 -10 49 -3 14 -18 93 -35 176 -17 83 -33
162 -35 176 -3 13 -8 38 -11 54 -2 17 -23 120 -45 230 -22 110 -42 209 -44
220 -7 52 -66 339 -71 347 -11 17 -63 37 -105 41 -24 2 -80 -5 -124 -14z"/>
</g>
</svg>
